<svg width="46" height="45" viewBox="0 0 46 45" fill="none" xmlns="http://www.w3.org/2000/svg">
<g opacity="0.5">
<path d="M6.89087 7.03125C6.89087 6.90693 6.94026 6.7877 7.02816 6.69979C7.11607 6.61189 7.2353 6.5625 7.35962 6.5625H32.6721C32.7964 6.5625 32.9157 6.61189 33.0036 6.69979C33.0915 6.7877 33.1409 6.90693 33.1409 7.03125V25.7812C33.1409 26.1542 33.289 26.5119 33.5527 26.7756C33.8165 27.0393 34.1742 27.1875 34.5471 27.1875C34.9201 27.1875 35.2778 27.0393 35.5415 26.7756C35.8052 26.5119 35.9534 26.1542 35.9534 25.7812V7.03125C35.9534 6.16101 35.6077 5.32641 34.9923 4.71106C34.377 4.0957 33.5424 3.75 32.6721 3.75H7.35962C6.48938 3.75 5.65478 4.0957 5.03943 4.71106C4.42407 5.32641 4.07837 6.16101 4.07837 7.03125V37.9688C4.07837 39.78 5.54837 41.25 7.35962 41.25H20.4846C20.8576 41.25 21.2153 41.1018 21.479 40.8381C21.7427 40.5744 21.8909 40.2167 21.8909 39.8438C21.8909 39.4708 21.7427 39.1131 21.479 38.8494C21.2153 38.5857 20.8576 38.4375 20.4846 38.4375H7.35962C7.2353 38.4375 7.11607 38.3881 7.02816 38.3002C6.94026 38.2123 6.89087 38.0931 6.89087 37.9688V7.03125Z" fill="black"/>
<path d="M12.0471 13.125C11.6742 13.125 11.3165 13.2732 11.0528 13.5369C10.789 13.8006 10.6409 14.1583 10.6409 14.5312C10.6409 14.9042 10.789 15.2619 11.0528 15.5256C11.3165 15.7893 11.6742 15.9375 12.0471 15.9375H27.9846C28.3576 15.9375 28.7153 15.7893 28.979 15.5256C29.2427 15.2619 29.3909 14.9042 29.3909 14.5312C29.3909 14.1583 29.2427 13.8006 28.979 13.5369C28.7153 13.2732 28.3576 13.125 27.9846 13.125H12.0471ZM10.6409 22.0312C10.6409 21.6583 10.789 21.3006 11.0528 21.0369C11.3165 20.7732 11.6742 20.625 12.0471 20.625H20.4846C20.8576 20.625 21.2153 20.7732 21.479 21.0369C21.7427 21.3006 21.8909 21.6583 21.8909 22.0312C21.8909 22.4042 21.7427 22.7619 21.479 23.0256C21.2153 23.2893 20.8576 23.4375 20.4846 23.4375H12.0471C11.6742 23.4375 11.3165 23.2893 11.0528 23.0256C10.789 22.7619 10.6409 22.4042 10.6409 22.0312ZM41.1659 30.525C41.304 30.3963 41.4148 30.241 41.4917 30.0685C41.5686 29.896 41.6099 29.7098 41.6132 29.521C41.6166 29.3322 41.5818 29.1446 41.5111 28.9695C41.4404 28.7944 41.3351 28.6353 41.2016 28.5018C41.068 28.3683 40.909 28.263 40.7339 28.1923C40.5588 28.1215 40.3712 28.0868 40.1824 28.0901C39.9936 28.0935 39.8074 28.1348 39.6349 28.2117C39.4624 28.2885 39.3071 28.3993 39.1784 28.5375L29.8596 37.8562L26.1659 34.1625C26.0371 34.0243 25.8819 33.9135 25.7094 33.8367C25.5369 33.7598 25.3507 33.7185 25.1618 33.7151C24.973 33.7118 24.7855 33.7465 24.6104 33.8173C24.4353 33.888 24.2762 33.9933 24.1427 34.1268C24.0091 34.2603 23.9039 34.4194 23.8331 34.5945C23.7624 34.7696 23.7277 34.9572 23.731 35.146C23.7343 35.3348 23.7757 35.521 23.8525 35.6935C23.9294 35.866 24.0402 36.0213 24.1784 36.15L28.8659 40.8375C29.1295 41.1008 29.487 41.2488 29.8596 41.2488C30.2323 41.2488 30.5897 41.1008 30.8534 40.8375L41.1659 30.525Z" fill="black"/>
</g>
</svg>
